<svg width="246" height="196" viewBox="0 0 246 196" fill="none" xmlns="http://www.w3.org/2000/svg">
    <path fill-rule="evenodd" clip-rule="evenodd"
        d="M46.7518 85.5787C48.297 84.1547 49.6209 82.9204 50.3172 82.2642C54.5443 78.2619 66.2497 69.595 72.3287 60.807C76.9688 54.1039 78.3573 47.3106 72.7933 41.9702C67.7361 37.1165 59.7147 37.2645 50.7126 40.6791C31.3384 48.0282 7.11352 70.1121 1.51797 78.6738C0.907608 79.6087 1.1679 80.8583 2.10289 81.4686C3.03348 82.0764 4.28299 81.8161 4.89335 80.8812C10.2651 72.6665 33.5451 51.5066 52.1444 44.4508C59.4147 41.6941 65.9155 40.9621 70 44.8839C74.0329 48.7525 72.3751 53.6502 69.0112 58.5095C63.0968 67.0633 51.6598 75.4385 47.5418 79.3333C44.9615 81.7763 34.8578 90.8154 34.1784 91.7987C33.3267 93.0294 33.9988 93.9935 34.2431 94.2933C34.4321 94.5259 35.4495 95.6246 37.0229 94.6813C59.4653 81.2441 103.204 76.1581 141.039 85.9102C178.542 95.5762 210.309 119.942 209.16 165.795C209.134 166.909 210.016 167.835 211.127 167.866C212.241 167.891 213.167 167.01 213.193 165.896C214.396 117.852 181.338 92.1288 142.049 82.0021C108.938 73.4664 71.4473 76.0994 46.7518 85.5787Z"
        fill="#3B8EA5" />
    <path fill-rule="evenodd" clip-rule="evenodd"
        d="M210.913 163.456C208 159.694 205.22 155.855 202.013 152.316C193.472 142.888 182.6 134.9 170.594 130.555C169.543 130.177 168.388 130.722 168.008 131.766C167.63 132.818 168.175 133.973 169.219 134.352C180.616 138.469 190.917 146.08 199.02 155.026C202.688 159.078 205.794 163.534 209.19 167.805C209.362 168.016 210.78 169.917 211.19 170.235C212.139 170.983 213.01 170.687 213.396 170.498C213.72 170.344 214.071 170.082 214.354 169.622C214.584 169.244 214.852 168.423 214.978 167.249C215.39 163.49 215.095 154.584 215.201 153.117C216.415 136.3 220.369 120.859 224.124 104.499C224.37 103.412 223.691 102.326 222.607 102.077C221.523 101.827 220.442 102.508 220.192 103.592C216.387 120.16 212.406 135.802 211.179 152.823C211.103 153.831 210.987 159.437 210.913 163.456Z"
        fill="#3B8EA5" />
</svg>