<svg width="460" height="71" viewBox="0 0 460 71" fill="none" xmlns="http://www.w3.org/2000/svg">
    <path fill-rule="evenodd" clip-rule="evenodd"
        d="M10.2723 39.6409C7.24167 39.59 4.21557 39.5223 1.19028 39.4417C0.599214 39.4256 0.106822 39.8929 0.0912782 40.485C0.0757344 41.0772 0.542987 41.571 1.13405 41.5871C3.85732 41.6571 6.58113 41.7186 9.30334 41.7713C9.45518 41.8755 9.76025 42.0281 10.2827 42.1172C26.5645 44.7901 44.1641 42.7674 60.8152 41.6299C76.425 41.2943 92.0426 40.7272 107.664 40.0357C105.803 40.2139 103.942 40.3878 102.08 40.5531C101.693 40.5887 100.689 40.6839 100.551 40.7181C99.7624 40.9301 99.741 41.6078 99.7439 41.7799C99.7453 41.866 99.8068 42.8155 100.873 42.8446C112.329 43.1475 123.782 42.1265 135.186 41.2012C139.428 40.8563 143.666 40.5025 147.906 40.1403C149.381 40.0106 153.218 39.829 153.747 39.7295C154.316 39.6195 154.537 39.2597 154.622 38.9814C163.822 38.4232 173.032 37.9343 182.245 37.51C184.049 37.5087 185.85 37.5114 187.651 37.5142C207.281 37.5633 226.905 37.6851 246.534 37.6481C235.598 38.1519 224.635 38.6969 213.716 39.4511C211.479 39.6054 209.247 39.8202 207.011 39.9918C205.79 40.0817 202.631 40.1258 202.186 40.2694C201.523 40.4895 201.419 40.9987 201.401 41.2511C201.391 41.4052 201.44 42.2636 202.554 42.4763C223.21 46.4373 244.287 47.2789 265.236 48.3704C270.748 48.6563 276.257 48.9637 281.765 49.2881C268.604 49.5129 255.312 49.033 242.174 48.7134C242.055 48.6026 241.884 48.4973 241.639 48.4258C241.278 48.3169 240.163 48.1772 238.13 48.0264C237.692 47.9942 237.296 48.2312 237.103 48.5972C233.981 48.5363 230.868 48.4888 227.769 48.468C217.622 48.3986 207.474 48.6903 197.328 48.6684L195.031 48.6427L194.552 48.6381C192.794 48.6079 190.642 48.5614 189.212 48.5306C188.387 48.5083 186.241 48.5007 185.944 48.5076C185.049 48.5366 184.896 49.365 184.889 49.4033C184.886 49.4246 184.898 50.6331 186.123 50.6637C186.943 50.6858 190.037 50.7278 194.375 50.7801C195.465 50.7979 196.421 50.8114 196.991 50.8132L197.43 50.8153C211.301 50.9624 233.53 51.1164 239.824 50.8032C260.301 51.2628 281.194 52.239 301.416 50.4689C302.08 50.408 302.371 50.1944 302.428 50.1465C302.741 49.8698 302.807 49.5559 302.794 49.2844C302.787 49.112 302.7 48.4145 301.861 48.2537C301.271 48.1388 297.02 48.0576 295.384 47.9578C285.374 47.3471 275.363 46.7492 265.347 46.2284C247.288 45.2863 229.132 44.5402 211.234 41.7946C212.11 41.7214 212.987 41.6525 213.864 41.5923C224.935 40.8263 236.052 40.2738 247.138 39.7667C281.566 38.1908 316.794 40.3019 351.065 37.3836C351.767 37.3251 352.081 37.113 352.142 37.0653C352.474 36.7855 352.539 36.4587 352.526 36.1828C352.518 36.0146 352.425 35.3081 351.569 35.1506C350.864 35.0198 345.782 34.9416 343.825 34.8344C336.012 34.4064 328.193 33.9736 320.372 33.7299C307.462 33.3302 294.524 33.092 281.59 33.0346C280.486 32.7839 279.342 32.5522 278.16 32.3395C286.883 32.1893 295.601 32.1117 304.315 32.1329C340.038 32.2081 375.751 32.8629 411.458 33.7795C426.246 34.1611 441.244 35.3684 456.038 35.1228C456.563 35.1132 457.724 35.2215 458.296 35.2105C458.622 35.2055 458.862 35.1476 458.976 35.1034C459.452 34.9101 459.607 34.5632 459.659 34.2914C459.702 34.0793 459.785 33.384 458.904 32.9927C439.956 24.5758 409.858 27.3725 390.145 26.5188C309.652 23.0337 229.102 25.1283 148.681 29.393C116.528 31.0964 84.4557 32.8263 52.3683 35.5482C40.9813 36.5133 29.5794 37.2927 18.2505 38.8202C16.7719 39.0227 13.6456 39.2279 11.6428 39.4444C11.1035 39.5047 10.6342 39.5736 10.2723 39.6409ZM452.858 33.008C434.159 27.1083 407.83 29.4313 390.053 28.6619C309.628 25.1813 229.147 27.2716 148.795 31.532C116.664 33.2368 84.615 34.964 52.5495 37.6873C44.3924 38.3764 36.2269 38.9746 28.0874 39.8195C38.9573 39.8402 49.8315 39.7194 60.7213 39.4878C62.9875 39.331 65.238 39.1904 67.4651 39.0827C94.8173 37.7488 122.231 36.4533 149.643 35.8024C158.711 35.3173 167.779 34.8194 176.855 34.3262C194.422 32.7656 218.403 30.5556 240.466 30.1791C248.055 30.0513 255.418 30.1412 262.221 30.5523C276.264 30.1687 290.295 29.9563 304.319 29.9884C340.059 30.0604 375.788 30.7205 411.516 31.6385C425.224 31.9901 439.111 33.0579 452.858 33.008ZM281.376 35.1786C273.088 35.1459 264.803 35.1907 256.529 35.3136C252.846 35.3717 249.163 35.4341 245.479 35.505C247.491 35.504 249.503 35.4987 251.514 35.4891C260.956 35.4576 270.421 35.4405 279.862 35.2285C280.331 35.2154 280.96 35.2296 281.665 35.2486L281.389 35.1838L281.376 35.1786ZM332.431 36.3749C328.391 36.1782 324.349 35.9986 320.306 35.8748C309.813 35.5514 299.303 35.33 288.789 35.2288C289.041 35.3909 289.174 35.5456 289.235 35.6441C289.414 35.9219 289.443 36.1944 289.402 36.4411C289.377 36.5943 289.319 36.7755 289.189 36.9478C303.629 36.9376 318.085 36.9584 332.431 36.3749ZM267.15 33.0535C265.568 32.9142 263.946 32.7938 262.29 32.6928C254.08 32.9186 245.869 33.196 237.667 33.5169C243.941 33.3828 250.219 33.2663 256.495 33.1711C260.046 33.1174 263.598 33.0769 267.15 33.0535Z"
        fill="#3B8EA5" />
</svg>